<?xml version="1.0" encoding="utf-8"?>
<!-- Generator: Adobe Illustrator 16.0.0, SVG Export Plug-In . SVG Version: 6.00 Build 0)  -->
<!DOCTYPE svg PUBLIC "-//W3C//DTD SVG 1.1//EN" "http://www.w3.org/Graphics/SVG/1.1/DTD/svg11.dtd">
<svg version="1.1" id="Capa_1" xmlns="http://www.w3.org/2000/svg" xmlns:xlink="http://www.w3.org/1999/xlink" x="0px" y="0px"
	 width="161.992px" height="164.992px" viewBox="0 0 161.992 164.992" enable-background="new 0 0 161.992 164.992"
	 xml:space="preserve">
<circle fill="#29ABE2" cx="83.905" cy="86.852" r="66.253"/>
<path fill="#FFFF00" d="M102.293,67.277c4.234-2.884,11.363-5.639,14.315,0.726c3.411,7.354-1.127,14.258-7.191,18.058
	c-12.902,8.082-4.333-1.666-4.333-1.666S112.343,68.466,102.293,67.277z"/>
<g>
	<path d="M125.17,54.921c-4.469,0.882-9.014,1.982-13.64,3.304c-4.627,1.322-9.206,2.771-13.738,4.343
		c-1.698,2.393-3.587,4.737-5.665,7.033c-2.076,2.299-4.233,4.518-6.466,6.656c-2.235,2.141-4.47,4.234-6.703,6.277
		c-2.235,2.046-4.359,4.045-6.373,5.995c-2.266,2.142-4.706,4.423-7.316,6.846c-2.613,2.424-5.319,4.753-8.119,6.986
		c-2.802,2.234-5.681,4.295-8.638,6.184c-2.959,1.889-5.948,3.397-8.969,4.53c-0.755,0.314-1.668,0.096-2.738-0.659
		c-1.071-0.756-2.108-1.732-3.115-2.928c-1.006-1.196-1.903-2.487-2.69-3.869c-0.787-1.385-1.275-2.552-1.463-3.494
		c-0.378-1.51-0.203-2.957,0.52-4.344c0.724-1.383,1.7-2.69,2.927-3.917c1.228-1.229,2.549-2.36,3.965-3.399
		c1.417-1.038,2.628-1.936,3.635-2.691c5.538-4.152,11.296-7.959,17.276-11.422c5.979-3.461,12.116-6.703,18.411-9.725
		c0.755-0.314,1.493-0.661,2.218-1.039c0.723-0.377,1.464-0.755,2.219-1.132l3.966-4.249c0.755-0.944,1.636-1.966,2.644-3.068
		c1.006-1.1,1.997-2.233,2.974-3.398c0.976-1.164,1.856-2.375,2.644-3.635c0.785-1.258,1.369-2.516,1.747-3.776
		c-2.708,0.566-5.745,1.496-9.11,2.785c-3.368,1.291-6.673,2.849-9.914,4.673c-3.242,1.826-6.2,3.903-8.874,6.231
		c-2.676,2.329-4.673,4.752-5.995,7.27c-0.316,0.755-0.694,1.085-1.133,0.991c-0.441-0.095-0.913-0.456-1.416-1.086
		c-0.505-0.628-0.977-1.463-1.417-2.501c-0.441-1.039-0.788-2.139-1.038-3.305c-0.253-1.164-0.363-2.296-0.331-3.398
		c0.03-1.1,0.267-2.06,0.708-2.879c0.629-1.069,1.636-2.092,3.021-3.068c1.383-0.975,2.894-1.855,4.532-2.644
		c1.635-0.786,3.288-1.494,4.956-2.124c1.667-0.628,3.1-1.132,4.296-1.51c0.503-0.189,1.369-0.472,2.596-0.85
		c1.228-0.377,2.611-0.755,4.154-1.132c1.542-0.378,3.193-0.74,4.957-1.086c1.761-0.345,3.477-0.598,5.145-0.755
		c1.667-0.157,3.193-0.173,4.578-0.047c1.384,0.127,2.487,0.441,3.306,0.944c0.376,0.252,0.864,0.961,1.463,2.124
		c0.598,1.165,1.164,2.455,1.7,3.871c0.533,1.416,0.91,2.832,1.132,4.248c0.22,1.417,0.143,2.471-0.234,3.163l-0.096,0.188
		c1.95-0.502,4.169-1.069,6.655-1.699c2.487-0.628,4.829-1.228,7.034-1.793c2.203-0.566,4.106-1.038,5.711-1.416
		c1.606-0.378,2.533-0.566,2.786-0.566c0.628-0.189,1.18-0.109,1.651,0.236c0.473,0.347,0.787,0.771,0.944,1.274
		c0.156,0.504,0.142,1.008-0.047,1.511C126.209,54.481,125.8,54.795,125.17,54.921z M62.2,77.674
		c-3.398,1.826-6.782,3.792-10.149,5.899c-3.367,2.109-6.562,4.359-9.583,6.75c-0.629,0.506-1.479,1.197-2.548,2.078
		c-1.071,0.882-2.109,1.842-3.116,2.879c-1.008,1.039-1.841,2.11-2.501,3.211c-0.661,1.102-0.834,2.125-0.52,3.067v-0.094
		c0.944,0.377,2.187,0.221,3.729-0.473c1.542-0.691,3.116-1.588,4.72-2.69c1.605-1.101,3.116-2.233,4.532-3.398
		c1.417-1.164,2.439-1.997,3.068-2.502c3.21-2.392,6.31-4.862,9.3-7.412c2.989-2.548,5.995-5.206,9.016-7.977l4.72-4.531
		C68.651,74.369,65.095,76.101,62.2,77.674z"/>
</g>
<g>
	<g>
		<path d="M58.066,113.663c-0.378-0.881-0.393-1.872-0.047-2.974c0.347-1.101,0.913-2.25,1.699-3.446
			c0.789-1.194,1.699-2.392,2.738-3.588c1.039-1.195,2.093-2.313,3.163-3.351c1.071-1.039,2.062-1.997,2.974-2.88
			c0.913-0.881,1.621-1.604,2.125-2.171c2.266-2.392,4.721-4.861,7.363-7.413c2.644-2.548,5.349-5.05,8.119-7.505
			c2.769-2.454,5.585-4.829,8.45-7.127c2.863-2.297,5.678-4.391,8.45-6.278c0.438-0.314,1.115-0.393,2.028-0.237
			c0.912,0.158,1.825,0.52,2.737,1.086c0.912,0.565,1.715,1.291,2.408,2.171c0.692,0.882,1.101,1.857,1.227,2.927
			c0.125,1.321-0.093,2.724-0.659,4.201c-0.567,1.479-1.275,2.959-2.124,4.438c-0.852,1.479-1.764,2.896-2.738,4.248
			c-0.978,1.355-1.779,2.565-2.408,3.634l-0.849,1.418c2.202-2.139,4.483-4.311,6.844-6.515c2.36-2.203,4.704-4.327,7.034-6.372
			c2.328-2.045,4.627-3.966,6.891-5.76c2.267-1.794,4.438-3.318,6.515-4.579c0.503-0.313,1.164-0.313,1.982,0
			c0.816,0.316,1.604,0.788,2.359,1.417c0.756,0.63,1.354,1.354,1.796,2.171c0.438,0.819,0.532,1.574,0.281,2.267
			c-0.316,0.818-1.055,1.968-2.218,3.446c-1.165,1.479-2.219,2.88-3.163,4.201c-0.316,0.44-1.055,1.543-2.218,3.305
			c-1.168,1.761-2.551,3.87-4.155,6.324s-3.272,5.066-5.004,7.836c-1.731,2.771-3.272,5.382-4.626,7.837
			c-1.354,2.453-2.406,4.577-3.162,6.373c-0.755,1.793-0.944,2.88-0.566,3.257c0.062,0.503-0.188,1.023-0.756,1.557
			c-0.566,0.536-1.307,1.039-2.219,1.513c-0.913,0.471-1.919,0.88-3.021,1.227c-1.102,0.346-2.156,0.598-3.161,0.755
			c-1.009,0.157-1.874,0.175-2.598,0.047c-0.724-0.125-1.149-0.439-1.274-0.944c-0.315-1.006-0.269-2.09,0.141-3.258
			c0.41-1.162,0.991-2.326,1.747-3.491c0.755-1.164,1.542-2.267,2.36-3.306c0.818-1.037,1.511-1.936,2.076-2.69
			c0.944-1.321,2.014-2.689,3.211-4.106c1.194-1.415,2.421-2.847,3.682-4.295c1.259-1.447,2.485-2.88,3.683-4.296
			c1.194-1.417,2.266-2.816,3.21-4.201c0.378-0.566,0.975-1.305,1.794-2.22c0.816-0.91,1.73-1.965,2.737-3.162
			c1.007-1.194,2.062-2.438,3.163-3.729c1.1-1.29,2.124-2.598,3.068-3.919c-3.148,2.583-6.577,5.634-10.291,9.159
			c-3.714,3.524-7.428,7.175-11.14,10.952c-3.716,3.774-7.302,7.537-10.763,11.28c-3.462,3.746-6.515,7.065-9.158,9.96
			c-0.692,0.756-1.273,1.055-1.746,0.896c-0.472-0.156-0.85-0.566-1.133-1.227c-0.283-0.662-0.488-1.494-0.614-2.502
			c-0.126-1.007-0.188-1.982-0.188-2.926c-0.252-0.379-0.347-1.04-0.283-1.984c0-0.628,0.221-1.305,0.661-2.028
			c0.439-0.724,1.007-1.465,1.699-2.22c0.691-0.756,1.417-1.478,2.172-2.171c0.755-0.692,1.478-1.322,2.172-1.889
			c1.258-1.637,2.469-3.272,3.634-4.908c1.164-1.637,2.314-3.337,3.446-5.099c1.259-1.888,2.501-3.839,3.729-5.854
			c1.227-2.014,2.313-4.09,3.257-6.229c0.314-0.628,0.707-1.416,1.181-2.36c0.471-0.944,0.863-1.889,1.18-2.833
			c-1.952,1.071-3.855,2.346-5.713,3.824c-1.856,1.479-3.649,3.037-5.38,4.673c-1.733,1.638-3.416,3.321-5.052,5.051
			c-1.637,1.731-3.209,3.352-4.72,4.861c-0.944,0.944-1.969,2.017-3.068,3.211c-1.103,1.197-2.205,2.44-3.305,3.729
			c-1.103,1.29-2.188,2.565-3.258,3.824s-2.046,2.393-2.926,3.398c-0.944,1.133-1.889,2.282-2.833,3.446
			c-0.943,1.165-1.856,2.345-2.738,3.54c-0.125,0.127-0.33,0.44-0.613,0.944c-0.283,0.503-0.598,1.07-0.944,1.699
			c-0.345,0.629-0.661,1.18-0.944,1.652c-0.283,0.471-0.456,0.707-0.52,0.707c-0.188,0.063-0.613-0.126-1.274-0.566
			c-0.661-0.439-1.369-0.991-2.125-1.652c-0.755-0.659-1.464-1.383-2.124-2.171C58.774,114.906,58.318,114.229,58.066,113.663z
			 M111.407,116.022c0-0.125-0.033-0.219-0.096-0.282v0.282H111.407z M133.97,69.479l-0.094-0.094v0.094H133.97z"/>
	</g>
</g>
<path fill="#FFFF00" d="M65.607,37.027c0,0-24.427,10.823-20.479,22.138l3.948,15.742c0,0-24.182,5.904-24.182,15.497
	c0,9.594,1.234,0,1.234,0l3.947,12.299c0,0,0.176-10.139,22.531-22.685l30.3-14.881l13.79-20.731c0,0-37.752,14.759-37.752,18.448
	S49.816,47.111,65.607,37.027z"/>
<path fill="#FFFF00" d="M134.308,74.172c0,0-27.421,48.978-11.888,39.784c0,0,7.608-3.172,3.17-8.719c0,0,15.534,9.964,3.17,17.108
	c-12.363,7.144-33.92,11.58-25.678-3.951C111.326,102.86,134.308,74.172,134.308,74.172z"/>
</svg>
